<svg id="svg" version="1.1" xmlns="http://www.w3.org/2000/svg" xmlns:xlink="http://www.w3.org/1999/xlink" width="400" height="400" viewBox="0, 0, 400,400"><g id="svgg"><path id="path0" d="M233.302 111.914 C 233.306 112.773,233.386 113.079,233.479 112.593 C 233.573 112.107,233.569 111.404,233.472 111.031 C 233.374 110.657,233.297 111.055,233.302 111.914 M146.184 146.094 C 146.184 146.846,146.265 147.153,146.363 146.777 C 146.461 146.401,146.461 145.786,146.363 145.410 C 146.265 145.034,146.184 145.342,146.184 146.094 M75.099 195.117 C 75.103 195.977,75.183 196.282,75.276 195.796 C 75.370 195.310,75.366 194.607,75.268 194.234 C 75.171 193.860,75.094 194.258,75.099 195.117 M91.114 195.898 C 91.118 196.758,91.198 197.063,91.292 196.577 C 91.385 196.092,91.382 195.388,91.284 195.015 C 91.186 194.642,91.110 195.039,91.114 195.898 M75.099 201.367 C 75.103 202.227,75.183 202.532,75.276 202.046 C 75.370 201.560,75.366 200.857,75.268 200.484 C 75.171 200.110,75.094 200.508,75.099 201.367 M91.106 204.688 C 91.106 205.439,91.187 205.747,91.285 205.371 C 91.383 204.995,91.383 204.380,91.285 204.004 C 91.187 203.628,91.106 203.936,91.106 204.688 M266.505 221.680 C 266.509 222.539,266.589 222.845,266.683 222.359 C 266.776 221.873,266.772 221.170,266.675 220.796 C 266.577 220.423,266.500 220.820,266.505 221.680 M302.210 248.516 C 298.969 251.768,297.802 252.709,297.238 252.530 C 296.025 252.145,292.770 255.495,291.780 258.147 C 285.861 274.002,261.772 293.801,242.526 298.632 C 241.898 298.790,240.171 300.539,237.777 303.444 C 235.708 305.954,232.864 309.258,231.458 310.786 L 228.902 313.565 232.322 312.669 C 234.203 312.177,238.027 311.309,240.820 310.740 C 294.884 299.732,314.848 281.520,294.937 261.371 C 291.777 258.173,291.773 258.271,295.149 255.289 L 297.674 253.059 300.696 255.783 C 317.946 271.333,316.251 287.737,296.156 299.731 C 295.009 300.416,293.603 301.255,293.031 301.596 C 289.502 303.700,286.871 304.958,281.747 306.993 C 269.039 312.040,254.914 315.521,237.109 317.994 C 227.460 319.334,225.715 319.525,221.484 319.701 C 218.843 319.812,216.012 320.229,213.531 320.874 C 203.829 323.396,193.680 321.034,183.543 313.895 L 181.734 312.621 174.168 312.386 C 158.081 311.885,135.555 306.984,123.051 301.263 C 121.867 300.721,119.580 299.706,117.969 299.007 C 116.357 298.308,112.975 296.752,110.453 295.548 C 105.067 292.978,105.746 293.075,103.097 294.498 C 89.779 301.653,74.605 297.141,60.190 281.740 L 56.624 277.930 57.683 280.469 C 60.757 287.834,71.007 297.995,78.516 301.122 C 79.697 301.614,81.147 302.221,81.738 302.471 C 82.329 302.721,82.812 303.115,82.813 303.348 C 82.813 307.164,110.376 316.235,130.859 319.159 C 135.181 319.776,135.547 319.882,135.547 320.515 C 135.547 320.833,135.767 321.096,136.035 321.100 C 136.367 321.104,136.341 321.221,135.951 321.468 C 135.351 321.847,132.404 321.664,130.078 321.103 C 129.326 320.921,127.656 320.651,126.367 320.503 C 118.420 319.586,98.393 314.928,89.127 311.840 C 72.560 306.320,63.308 301.087,54.602 292.310 C 49.703 287.372,49.531 287.073,47.458 279.885 C 46.791 277.571,45.958 276.789,44.812 277.403 C 44.006 277.834,43.994 280.881,44.770 287.695 L 44.993 289.648 43.102 290.430 C 35.164 293.710,27.611 285.882,27.083 273.828 C 26.597 262.745,21.114 262.413,17.390 273.242 C 14.866 280.579,17.153 288.533,24.010 296.266 C 26.984 299.622,32.411 303.906,33.686 303.906 C 33.758 303.906,34.512 302.238,35.361 300.198 C 36.523 297.404,37.053 296.538,37.510 296.683 C 37.843 296.789,39.129 296.612,40.366 296.289 C 44.239 295.280,44.924 295.449,46.423 297.777 L 47.728 299.805 45.527 301.854 C 44.316 302.982,42.366 304.518,41.194 305.267 C 38.723 306.848,38.593 307.363,40.332 308.684 C 48.032 314.533,73.336 324.098,89.648 327.326 C 90.723 327.538,93.711 328.163,96.289 328.713 C 113.702 332.433,131.195 334.548,154.688 335.775 C 196.430 337.954,246.803 332.576,278.125 322.597 C 299.581 315.761,310.623 310.768,321.484 302.991 C 340.241 289.561,342.333 272.563,327.003 258.141 C 322.370 253.782,307.874 243.850,306.663 244.204 C 306.543 244.239,304.540 246.180,302.210 248.516 M34.485 256.348 C 32.600 258.316,32.694 261.087,34.662 261.581 C 36.145 261.954,37.123 260.601,37.064 258.258 C 37.039 257.261,36.936 256.766,36.835 257.158 C 36.721 257.597,36.427 257.784,36.067 257.646 C 35.746 257.523,35.278 257.416,35.027 257.409 C 34.745 257.402,34.795 257.214,35.156 256.921 C 35.672 256.503,36.197 255.078,35.836 255.078 C 35.761 255.078,35.153 255.649,34.485 256.348 M36.527 258.990 C 37.012 259.775,36.292 260.987,35.416 260.863 C 34.951 260.796,34.570 260.537,34.570 260.286 C 34.570 260.036,34.445 259.705,34.291 259.552 C 34.138 259.398,34.189 258.942,34.405 258.537 C 34.805 257.789,35.934 258.030,36.527 258.990 M249.396 261.035 L 247.852 262.695 249.512 261.151 C 251.056 259.715,251.351 259.375,251.056 259.375 C 250.992 259.375,250.245 260.122,249.396 261.035 M58.358 305.882 C 62.049 308.387,62.302 308.685,61.644 309.747 C 60.339 311.851,57.037 311.549,52.939 308.951 C 49.896 307.021,49.979 305.048,53.134 304.306 C 55.282 303.800,55.295 303.804,58.358 305.882 " stroke="none" fill="#4b82b9" fill-rule="evenodd"></path><path id="path1" d="M195.215 47.548 C 195.913 47.635,197.056 47.635,197.754 47.548 C 198.452 47.462,197.881 47.391,196.484 47.391 C 195.088 47.391,194.517 47.462,195.215 47.548 M144.708 70.020 L 143.164 71.680 144.824 70.136 C 146.368 68.700,146.664 68.359,146.368 68.359 C 146.305 68.359,145.557 69.106,144.708 70.020 M162.500 74.169 C 156.644 76.105,150.652 82.992,143.064 96.509 C 135.007 110.862,130.055 133.191,132.557 143.890 C 133.404 147.508,133.596 147.236,128.906 149.043 C 92.677 163.003,81.426 197.295,100.204 236.523 C 113.677 264.669,136.445 280.373,165.458 281.531 C 173.420 281.849,174.478 281.631,175.026 279.567 C 176.991 272.168,186.874 251.372,190.935 246.094 C 198.701 236.000,212.176 238.774,218.610 251.792 L 219.992 254.588 223.961 254.770 C 231.975 255.138,236.914 259.508,236.914 266.234 L 236.914 269.382 237.891 268.894 C 238.428 268.625,239.824 267.937,240.992 267.363 C 256.526 259.744,269.158 231.828,266.442 211.120 C 263.996 192.471,256.355 178.278,242.773 167.152 C 241.914 166.448,240.141 164.839,238.832 163.576 L 236.454 161.280 236.801 159.058 C 237.169 156.705,237.823 154.389,240.954 144.336 C 245.766 128.888,247.350 120.646,247.371 110.938 C 247.445 76.575,217.251 74.460,190.808 106.974 L 188.060 110.352 185.692 110.466 L 183.324 110.581 183.060 104.412 C 182.330 87.343,179.150 78.260,172.822 75.164 C 170.519 74.037,164.618 73.468,162.500 74.169 M156.671 94.248 C 161.250 97.333,160.802 103.728,155.830 106.265 C 149.945 109.267,144.418 102.440,147.909 96.482 C 149.615 93.571,154.006 92.451,156.671 94.248 M230.118 105.567 C 236.400 109.728,233.008 120.292,225.535 119.840 C 221.168 119.576,219.141 117.426,219.141 113.060 C 219.141 106.721,225.406 102.445,230.118 105.567 M225.098 107.681 C 224.428 107.951,224.485 108.785,225.215 109.391 C 226.111 110.135,227.323 108.924,226.579 108.027 C 226.053 107.394,225.898 107.358,225.098 107.681 M116.113 110.426 C 116.489 110.524,117.104 110.524,117.480 110.426 C 117.856 110.327,117.549 110.247,116.797 110.247 C 116.045 110.247,115.737 110.327,116.113 110.426 M186.825 114.867 C 190.748 115.631,196.661 119.467,199.331 122.981 C 216.829 146.005,190.816 166.920,160.783 153.976 C 158.254 152.886,157.857 152.827,154.337 153.011 C 145.628 153.468,143.798 146.712,149.539 135.297 C 156.918 120.625,172.512 112.080,186.825 114.867 M54.013 146.094 C 54.013 147.061,54.089 147.456,54.182 146.973 C 54.275 146.489,54.275 145.698,54.182 145.215 C 54.089 144.731,54.013 145.127,54.013 146.094 M56.641 153.638 C 56.641 153.705,57.212 154.276,57.910 154.907 L 59.180 156.055 58.032 154.785 C 56.963 153.602,56.641 153.336,56.641 153.638 M299.770 206.250 C 299.770 210.010,299.829 211.548,299.900 209.668 C 299.972 207.788,299.972 204.712,299.900 202.832 C 299.829 200.952,299.770 202.490,299.770 206.250 M305.762 212.776 C 306.245 212.869,307.036 212.869,307.520 212.776 C 308.003 212.683,307.607 212.606,306.641 212.606 C 305.674 212.606,305.278 212.683,305.762 212.776 M294.824 255.602 C 291.633 258.583,291.623 258.016,294.928 261.361 C 314.856 281.528,295.011 299.641,240.820 310.747 C 232.381 312.476,229.329 313.350,227.413 314.586 C 226.408 315.235,224.868 316.235,223.991 316.810 C 223.114 317.384,221.570 318.170,220.560 318.555 C 215.617 320.443,220.724 320.270,237.109 317.994 C 260.834 314.699,280.941 308.803,293.031 301.596 C 293.603 301.255,295.009 300.416,296.156 299.731 C 315.511 288.179,317.834 271.929,302.231 257.241 C 297.069 252.382,298.041 252.597,294.824 255.602 M35.938 255.469 C 35.938 256.212,35.817 256.447,35.195 256.921 C 34.837 257.194,34.765 257.402,35.027 257.409 C 35.278 257.416,35.738 257.520,36.050 257.639 C 36.404 257.775,36.695 257.555,36.826 257.053 C 36.963 256.530,36.849 256.250,36.499 256.250 C 36.182 256.250,36.054 256.010,36.187 255.664 C 36.311 255.342,36.305 255.078,36.175 255.078 C 36.044 255.078,35.938 255.254,35.938 255.469 M326.563 257.544 C 326.563 257.611,327.134 258.183,327.832 258.814 L 329.102 259.961 327.954 258.691 C 326.885 257.508,326.563 257.242,326.563 257.544 M34.418 258.514 C 34.194 258.931,34.138 259.398,34.291 259.552 C 34.445 259.705,34.570 260.036,34.570 260.286 C 34.570 260.537,34.968 260.799,35.455 260.868 C 35.971 260.941,36.231 261.169,36.078 261.416 C 35.926 261.663,35.998 261.727,36.251 261.571 C 36.489 261.424,36.575 261.016,36.440 260.666 C 36.278 260.243,36.348 260.122,36.647 260.307 C 37.482 260.823,36.501 258.870,35.638 258.296 C 34.916 257.817,34.777 257.842,34.418 258.514 M337.243 277.930 C 337.245 279.648,337.313 280.303,337.396 279.384 C 337.478 278.465,337.477 277.059,337.393 276.259 C 337.309 275.459,337.242 276.211,337.243 277.930 M44.167 277.507 C 43.894 277.836,43.766 278.910,43.852 280.144 L 43.996 282.227 44.068 280.000 C 44.122 278.344,44.316 277.671,44.824 277.375 C 45.200 277.156,45.310 276.972,45.067 276.965 C 44.825 276.958,44.420 277.203,44.167 277.507 M43.835 283.759 C 43.496 284.503,43.524 284.807,43.967 285.174 C 44.441 285.568,44.531 285.417,44.531 284.228 C 44.531 282.562,44.416 282.484,43.835 283.759 M65.820 292.188 C 67.096 293.477,68.227 294.531,68.335 294.531 C 68.442 294.531,67.487 293.477,66.211 292.188 C 64.935 290.898,63.804 289.844,63.696 289.844 C 63.589 289.844,64.545 290.898,65.820 292.188 M76.624 300.857 C 77.625 301.816,79.471 303.099,80.726 303.708 C 81.981 304.316,83.359 304.984,83.789 305.193 C 84.499 305.537,84.490 305.484,83.691 304.616 C 83.208 304.091,82.813 303.495,82.813 303.293 C 82.813 302.924,82.500 302.767,78.516 301.138 C 77.334 300.655,76.016 300.002,75.586 299.687 C 75.156 299.371,75.624 299.898,76.624 300.857 M45.489 301.660 L 43.945 303.320 45.605 301.776 C 46.519 300.927,47.266 300.180,47.266 300.116 C 47.266 299.820,46.925 300.116,45.489 301.660 M53.134 304.306 C 49.979 305.048,49.896 307.021,52.939 308.951 C 57.037 311.549,60.339 311.851,61.644 309.747 C 62.302 308.685,62.049 308.387,58.358 305.882 C 55.295 303.804,55.282 303.800,53.134 304.306 M90.234 308.329 C 90.234 308.602,96.136 311.025,96.329 310.832 C 96.417 310.744,95.216 310.161,93.660 309.535 C 92.105 308.910,90.697 308.340,90.533 308.268 C 90.369 308.197,90.234 308.224,90.234 308.329 M96.875 311.040 C 96.875 311.296,102.774 313.372,102.963 313.183 C 103.046 313.100,101.930 312.619,100.483 312.116 C 99.036 311.613,97.632 311.123,97.363 311.027 C 97.095 310.932,96.875 310.938,96.875 311.040 M104.780 313.789 C 105.583 314.014,106.336 314.501,106.454 314.870 C 106.577 315.257,107.243 315.651,108.021 315.797 C 108.766 315.937,109.375 316.200,109.375 316.382 C 109.375 316.563,109.822 316.824,110.368 316.961 C 110.913 317.098,111.276 317.347,111.173 317.513 C 110.992 317.806,121.924 319.928,127.580 320.697 C 129.107 320.905,130.601 321.158,130.901 321.261 C 132.106 321.671,135.415 321.807,135.951 321.468 C 136.341 321.221,136.367 321.104,136.035 321.100 C 135.767 321.096,135.547 320.833,135.547 320.515 C 135.547 319.882,135.181 319.776,130.859 319.159 C 123.797 318.151,116.044 316.529,108.398 314.462 C 106.035 313.823,103.926 313.318,103.711 313.340 C 103.496 313.362,103.977 313.564,104.780 313.789 M130.566 334.254 C 130.942 334.352,131.558 334.352,131.934 334.254 C 132.310 334.155,132.002 334.075,131.250 334.075 C 130.498 334.075,130.190 334.155,130.566 334.254 M134.473 334.644 C 134.849 334.743,135.464 334.743,135.840 334.644 C 136.216 334.546,135.908 334.466,135.156 334.466 C 134.404 334.466,134.097 334.546,134.473 334.644 M212.598 334.644 C 212.974 334.743,213.589 334.743,213.965 334.644 C 214.341 334.546,214.033 334.466,213.281 334.466 C 212.529 334.466,212.222 334.546,212.598 334.644 M208.301 335.035 C 208.677 335.133,209.292 335.133,209.668 335.035 C 210.044 334.937,209.736 334.856,208.984 334.856 C 208.232 334.856,207.925 334.937,208.301 335.035 M144.629 335.426 C 145.005 335.524,145.620 335.524,145.996 335.426 C 146.372 335.327,146.064 335.247,145.313 335.247 C 144.561 335.247,144.253 335.327,144.629 335.426 M151.855 335.823 C 152.339 335.916,153.130 335.916,153.613 335.823 C 154.097 335.729,153.701 335.653,152.734 335.653 C 151.768 335.653,151.372 335.729,151.855 335.823 M196.782 335.823 C 197.268 335.917,197.971 335.913,198.344 335.815 C 198.718 335.717,198.320 335.641,197.461 335.645 C 196.602 335.650,196.296 335.730,196.782 335.823 M158.487 336.219 C 159.181 336.306,160.411 336.307,161.222 336.223 C 162.032 336.138,161.465 336.067,159.961 336.066 C 158.457 336.064,157.794 336.133,158.487 336.219 M186.816 336.222 C 187.622 336.306,188.940 336.306,189.746 336.222 C 190.552 336.138,189.893 336.069,188.281 336.069 C 186.670 336.069,186.011 336.138,186.816 336.222 " stroke="none" fill="#f8f9f9" fill-rule="evenodd"></path><path id="path2" d="M181.841 36.711 C 181.139 37.847,183.486 39.485,188.281 41.206 C 190.886 42.141,193.568 43.542,196.484 45.489 L 199.414 47.445 193.555 47.904 C 161.086 50.451,137.941 69.405,122.307 106.250 C 120.523 110.453,120.620 110.340,118.710 110.458 C 89.238 112.283,59.871 127.086,55.047 142.550 C 51.919 152.577,62.513 161.579,79.275 163.137 C 82.682 163.454,82.577 163.251,81.157 166.786 C 75.573 180.687,73.686 202.915,77.133 214.175 L 77.706 216.046 76.646 216.433 C 76.063 216.646,75.347 216.905,75.055 217.008 C 71.837 218.146,67.815 222.152,67.121 224.909 C 66.781 226.258,66.563 226.548,66.061 226.320 C 64.177 225.468,58.587 225.693,56.530 226.704 C 51.347 229.253,49.359 232.472,49.729 237.717 L 49.962 241.016 48.783 241.016 C 43.709 241.016,40.849 248.537,42.916 256.445 C 44.614 262.944,50.605 271.513,61.719 283.341 C 74.637 297.091,90.373 301.333,103.097 294.498 C 105.746 293.075,105.067 292.978,110.453 295.548 C 112.975 296.752,116.357 298.308,117.969 299.007 C 119.580 299.706,121.867 300.721,123.051 301.263 C 135.513 306.964,158.085 311.886,174.023 312.376 C 178.105 312.501,181.797 312.783,182.227 313.001 C 182.656 313.220,184.222 314.187,185.707 315.152 C 198.527 323.481,212.909 323.948,224.095 316.399 C 225.044 315.758,225.892 315.234,225.979 315.234 C 227.220 315.234,233.865 308.503,238.913 302.133 C 240.542 300.078,241.851 298.801,242.496 298.639 C 261.773 293.801,285.856 274.014,291.780 258.147 C 292.765 255.510,296.026 252.146,297.228 252.527 C 298.773 253.017,308.431 242.418,313.945 234.180 C 318.337 227.620,322.247 219.496,322.263 216.902 C 322.278 214.341,310.902 212.487,300.649 213.380 L 299.539 213.477 299.588 207.813 C 299.639 201.940,299.164 194.213,298.285 186.625 C 298.005 184.206,297.824 182.166,297.883 182.092 C 297.942 182.018,300.618 183.204,303.828 184.728 C 307.038 186.253,309.770 187.500,309.899 187.500 C 310.028 187.500,311.061 187.921,312.195 188.436 C 321.149 192.499,337.582 195.625,345.839 194.837 C 353.624 194.094,357.019 189.142,355.894 180.171 C 353.816 163.597,337.730 146.825,315.430 137.981 C 306.123 134.290,305.631 134.121,297.656 131.851 C 292.866 130.487,289.238 129.491,284.570 128.259 C 279.324 126.874,279.805 127.257,279.091 123.903 C 276.490 111.674,276.181 110.405,274.401 104.640 C 267.771 83.167,253.657 64.633,236.954 55.466 C 234.641 54.196,233.269 53.035,230.578 50.070 C 226.926 46.047,226.744 45.873,224.571 44.332 C 221.615 42.236,214.317 40.827,213.475 42.190 C 213.341 42.407,214.181 43.945,215.341 45.608 C 218.466 50.088,218.417 49.765,215.935 49.509 C 213.896 49.298,213.624 49.134,210.894 46.467 C 205.090 40.798,200.027 38.233,191.992 36.892 C 188.299 36.276,182.177 36.166,181.841 36.711 M169.745 73.865 C 178.503 75.484,183.203 86.451,183.203 105.267 C 183.203 110.548,183.203 110.547,185.721 110.547 C 187.273 110.547,188.385 109.587,191.835 105.273 C 210.637 81.763,235.560 76.478,244.285 94.152 C 248.094 101.868,248.764 114.233,246.031 126.367 C 243.931 135.693,243.431 137.526,240.080 148.197 C 238.672 152.683,237.314 157.395,237.064 158.668 L 236.608 160.982 237.933 162.367 C 238.662 163.130,240.838 165.097,242.770 166.740 C 255.647 177.691,262.331 188.671,265.751 204.492 C 271.059 229.053,258.449 259.863,239.588 268.415 C 236.407 269.857,236.682 270.060,236.595 266.211 C 236.439 259.376,230.115 254.243,222.698 254.932 L 220.077 255.176 218.815 252.611 C 211.692 238.144,198.050 235.962,189.886 247.985 C 186.956 252.299,177.916 271.158,176.355 276.214 C 175.997 277.372,175.489 279.018,175.226 279.871 C 173.514 285.422,144.650 280.560,131.641 272.530 C 126.189 269.165,124.882 268.180,119.141 263.114 C 110.684 255.652,101.204 241.310,96.659 229.102 C 82.827 191.945,95.034 161.610,129.046 148.623 L 132.896 147.152 132.677 145.939 C 131.800 141.090,131.645 139.523,131.643 135.500 C 131.640 129.757,133.954 117.038,135.542 114.072 C 135.739 113.703,135.979 112.979,136.075 112.463 C 136.505 110.141,141.733 98.277,144.216 93.986 C 153.926 77.207,160.366 72.131,169.745 73.865 M151.359 93.966 C 146.627 95.574,145.504 102.932,149.569 105.694 C 154.767 109.226,161.937 102.894,159.081 97.293 C 157.584 94.358,154.331 92.956,151.359 93.966 M224.448 105.095 C 221.342 106.024,218.775 110.609,219.284 114.320 C 220.190 120.931,229.347 121.741,232.268 115.469 C 235.101 109.385,230.502 103.285,224.448 105.095 M226.953 108.008 C 227.341 108.475,227.341 108.712,226.953 109.180 C 225.968 110.367,223.916 109.447,224.449 108.057 C 224.755 107.260,226.307 107.229,226.953 108.008 M176.953 114.722 C 163.561 116.955,151.406 127.835,147.417 141.161 C 144.907 149.548,148.248 154.257,155.664 152.783 C 157.463 152.426,157.864 152.499,160.742 153.719 C 187.743 165.157,212.300 150.215,202.396 128.373 C 201.064 125.436,198.102 121.465,196.161 120.016 C 195.372 119.427,194.501 118.732,194.225 118.472 C 191.288 115.698,182.518 113.795,176.953 114.722 M187.418 124.715 C 191.651 126.810,195.327 131.884,193.457 133.051 C 186.750 137.238,172.428 142.278,161.765 144.204 C 160.558 144.422,158.726 144.752,157.694 144.936 C 154.724 145.468,154.291 144.711,155.896 141.797 C 162.033 130.652,169.525 124.692,179.102 123.334 C 180.796 123.094,185.833 123.931,187.418 124.715 M196.866 139.355 C 196.808 143.975,189.505 148.770,181.353 149.539 C 175.178 150.122,167.253 148.698,172.236 147.902 C 177.026 147.136,188.800 142.810,194.336 139.782 C 196.670 138.505,196.878 138.470,196.866 139.355 M81.722 225.347 C 82.375 225.595,83.182 226.852,84.546 229.742 C 90.175 241.673,92.273 245.940,93.594 248.147 C 95.916 252.025,99.635 257.852,100.012 258.203 C 100.128 258.311,101.081 259.629,102.131 261.133 C 103.181 262.637,105.152 265.124,106.512 266.660 C 109.526 270.064,109.526 270.083,106.864 275.579 C 100.067 289.610,90.417 292.832,77.971 285.227 C 67.571 278.871,51.068 258.550,50.472 251.366 L 50.294 249.217 52.565 250.585 C 55.690 252.467,58.738 252.185,60.365 249.862 C 61.016 248.933,61.128 247.039,60.554 246.684 C 59.939 246.304,58.203 240.155,58.203 238.359 C 58.203 234.250,63.058 233.497,69.126 236.664 C 73.869 239.139,75.663 238.946,76.487 235.875 C 76.831 234.594,76.788 234.423,76.073 234.236 C 75.341 234.045,75.296 233.826,75.529 231.600 C 75.997 227.122,78.840 224.252,81.722 225.347 M205.880 250.206 C 209.804 252.235,211.088 257.553,209.917 266.930 C 209.518 270.127,211.731 270.005,217.913 266.487 C 227.423 261.077,228.058 261.743,225.991 274.963 C 225.194 280.059,225.242 280.111,229.298 278.562 C 237.630 275.380,240.137 279.701,235.730 289.645 C 226.072 311.435,203.517 319.516,189.306 306.277 C 180.334 297.919,180.043 290.984,187.877 272.266 C 196.264 252.226,200.277 247.308,205.880 250.206 " stroke="none" fill="#243d5d" fill-rule="evenodd"></path><path id="path3" d="M176.087 124.044 C 169.986 125.523,163.172 130.743,158.880 137.225 C 153.446 145.434,153.613 145.675,163.281 143.571 C 174.409 141.150,183.219 138.348,188.281 135.619 C 194.899 132.051,194.549 132.439,193.110 130.266 C 189.300 124.513,183.260 122.305,176.087 124.044 M192.383 140.898 C 187.734 143.315,182.912 145.138,175.874 147.139 C 169.534 148.942,169.892 149.320,177.930 149.315 C 186.695 149.310,193.466 146.572,195.741 142.113 C 197.411 138.840,196.780 138.612,192.383 140.898 M78.611 226.053 C 76.831 227.207,76.372 228.042,75.785 231.193 C 75.370 233.423,75.491 233.984,76.390 233.984 C 77.058 233.984,77.088 234.461,76.543 236.421 C 75.768 239.211,73.885 239.349,69.304 236.953 C 62.529 233.408,57.533 234.550,58.391 239.449 C 58.722 241.338,60.174 245.789,60.658 246.400 C 61.390 247.324,61.034 249.270,59.921 250.432 C 57.745 252.704,55.525 252.736,52.210 250.543 C 50.335 249.303,50.241 249.407,50.752 252.170 C 52.078 259.343,74.036 285.547,78.721 285.547 C 78.864 285.547,79.448 285.874,80.018 286.273 C 84.184 289.191,91.499 289.705,96.781 287.453 C 100.322 285.943,104.168 281.176,107.144 274.609 C 109.192 270.091,109.195 269.993,107.358 267.967 C 106.482 267.001,104.654 264.717,103.296 262.891 C 101.938 261.064,100.488 259.131,100.074 258.594 C 96.524 253.990,91.652 245.295,86.697 234.718 C 81.819 224.308,81.624 224.099,78.611 226.053 M200.899 249.984 C 198.101 251.178,193.843 258.535,188.341 271.680 C 180.236 291.043,180.427 297.487,189.353 305.905 C 196.969 313.088,208.065 314.711,217.032 309.954 C 234.022 300.941,245.968 272.476,230.251 278.457 C 224.943 280.477,224.775 280.281,225.954 273.449 C 226.654 269.394,226.746 265.135,226.158 264.037 C 225.426 262.669,224.627 262.954,216.311 267.541 C 214.069 268.777,212.804 269.226,211.428 269.273 L 209.570 269.336 209.601 267.969 C 209.618 267.217,209.869 265.089,210.159 263.240 C 211.448 255.029,206.310 247.674,200.899 249.984 " stroke="none" fill="#e6b142" fill-rule="evenodd"></path><path id="path4" d="M184.284 36.221 C 184.986 36.308,186.041 36.306,186.628 36.217 C 187.215 36.127,186.641 36.056,185.352 36.059 C 184.063 36.061,183.582 36.134,184.284 36.221 M215.144 41.689 C 215.846 41.776,216.900 41.774,217.487 41.685 C 218.074 41.596,217.500 41.525,216.211 41.527 C 214.922 41.529,214.442 41.602,215.144 41.689 M207.813 43.482 C 207.813 43.549,208.384 44.120,209.082 44.751 L 210.352 45.898 209.204 44.629 C 208.135 43.446,207.813 43.180,207.813 43.482 M227.344 46.607 C 227.344 46.674,227.915 47.245,228.613 47.876 L 229.883 49.023 228.736 47.754 C 227.666 46.571,227.344 46.305,227.344 46.607 M216.356 47.461 C 216.567 47.891,217.026 48.594,217.376 49.023 L 218.012 49.805 217.628 49.023 C 217.417 48.594,216.958 47.891,216.609 47.461 L 215.973 46.680 216.356 47.461 M191.699 47.932 C 192.183 48.025,192.974 48.025,193.457 47.932 C 193.940 47.839,193.545 47.763,192.578 47.763 C 191.611 47.763,191.216 47.839,191.699 47.932 M147.443 67.676 L 145.898 69.336 147.559 67.792 C 149.103 66.356,149.398 66.016,149.103 66.016 C 149.039 66.016,148.292 66.763,147.443 67.676 M253.906 68.872 C 253.906 68.939,254.478 69.511,255.176 70.142 L 256.445 71.289 255.298 70.020 C 254.229 68.836,253.906 68.570,253.906 68.872 M165.144 73.721 C 165.846 73.808,166.900 73.806,167.487 73.717 C 168.074 73.627,167.500 73.556,166.211 73.559 C 164.922 73.561,164.442 73.634,165.144 73.721 M175.781 77.148 C 176.510 77.900,177.194 78.516,177.302 78.516 C 177.409 78.516,176.901 77.900,176.172 77.148 C 175.443 76.396,174.759 75.781,174.651 75.781 C 174.544 75.781,175.052 76.396,175.781 77.148 M156.030 77.832 L 154.883 79.102 156.152 77.954 C 157.336 76.885,157.601 76.563,157.300 76.563 C 157.232 76.563,156.661 77.134,156.030 77.832 M150.391 84.375 C 149.932 85.020,149.644 85.547,149.751 85.547 C 149.859 85.547,150.322 85.020,150.781 84.375 C 151.240 83.730,151.528 83.203,151.420 83.203 C 151.313 83.203,150.850 83.730,150.391 84.375 M224.707 83.874 C 225.298 83.963,226.265 83.963,226.855 83.874 C 227.446 83.784,226.963 83.711,225.781 83.711 C 224.600 83.711,224.116 83.784,224.707 83.874 M240.422 89.063 C 241.693 90.459,242.810 91.689,242.904 91.797 C 242.998 91.904,242.888 91.641,242.660 91.211 C 242.433 90.781,241.315 89.551,240.178 88.477 L 238.110 86.523 240.422 89.063 M201.863 95.020 C 199.651 97.160,199.609 97.224,201.525 95.540 C 204.696 92.753,204.879 92.578,204.620 92.578 C 204.491 92.578,203.250 93.677,201.863 95.020 M156.055 93.998 C 156.270 94.187,157.060 94.868,157.811 95.511 L 159.177 96.680 158.202 95.570 C 157.665 94.959,156.875 94.278,156.445 94.057 C 156.016 93.836,155.840 93.809,156.055 93.998 M247.356 105.859 C 247.356 106.611,247.437 106.919,247.535 106.543 C 247.633 106.167,247.633 105.552,247.535 105.176 C 247.437 104.800,247.356 105.107,247.356 105.859 M151.855 106.916 C 152.339 107.009,153.130 107.009,153.613 106.916 C 154.097 106.823,153.701 106.747,152.734 106.747 C 151.768 106.747,151.372 106.823,151.855 106.916 M118.457 110.426 C 118.833 110.524,119.448 110.524,119.824 110.426 C 120.200 110.327,119.893 110.247,119.141 110.247 C 118.389 110.247,118.081 110.327,118.457 110.426 M247.377 115.430 C 247.380 116.504,247.456 116.897,247.546 116.303 C 247.636 115.709,247.633 114.831,247.541 114.350 C 247.448 113.870,247.374 114.355,247.377 115.430 M196.484 120.044 C 196.484 120.111,197.056 120.683,197.754 121.314 L 199.023 122.461 197.876 121.191 C 196.807 120.008,196.484 119.742,196.484 120.044 M163.672 131.055 C 162.723 132.021,162.035 132.813,162.142 132.813 C 162.249 132.813,163.114 132.021,164.063 131.055 C 165.011 130.088,165.700 129.297,165.592 129.297 C 165.485 129.297,164.621 130.088,163.672 131.055 M61.509 132.520 L 59.570 134.570 61.621 132.632 C 63.527 130.831,63.851 130.469,63.560 130.469 C 63.498 130.469,62.575 131.392,61.509 132.520 M203.973 132.813 C 203.993 133.827,204.608 135.495,204.621 134.570 C 204.627 134.141,204.482 133.438,204.297 133.008 C 204.091 132.529,203.966 132.454,203.973 132.813 M204.794 138.281 C 204.794 139.248,204.870 139.644,204.963 139.160 C 205.056 138.677,205.056 137.886,204.963 137.402 C 204.870 136.919,204.794 137.314,204.794 138.281 M201.561 147.754 C 200.986 148.539,200.892 148.812,201.314 148.470 C 201.954 147.949,202.923 146.484,202.626 146.484 C 202.552 146.484,202.072 147.056,201.561 147.754 M173.926 149.488 C 174.302 149.586,174.917 149.586,175.293 149.488 C 175.669 149.390,175.361 149.309,174.609 149.309 C 173.857 149.309,173.550 149.390,173.926 149.488 M180.766 149.495 C 181.252 149.588,181.955 149.585,182.329 149.487 C 182.702 149.389,182.305 149.313,181.445 149.317 C 180.586 149.322,180.280 149.402,180.766 149.495 M340.234 152.857 C 340.234 152.924,340.806 153.495,341.504 154.126 L 342.773 155.273 341.626 154.004 C 340.557 152.821,340.234 152.555,340.234 152.857 M113.477 156.870 L 112.305 157.877 113.574 157.037 C 114.272 156.575,114.844 156.121,114.844 156.028 C 114.844 155.736,114.678 155.838,113.477 156.870 M61.931 157.840 C 62.185 158.250,65.234 159.886,65.234 159.612 C 65.234 159.518,64.439 158.997,63.467 158.454 C 62.495 157.911,61.804 157.635,61.931 157.840 M178.034 158.096 C 178.736 158.183,179.791 158.181,180.378 158.092 C 180.965 158.002,180.391 157.931,179.102 157.934 C 177.813 157.936,177.332 158.009,178.034 158.096 M108.764 160.645 L 107.617 161.914 108.887 160.767 C 110.070 159.697,110.336 159.375,110.034 159.375 C 109.967 159.375,109.396 159.946,108.764 160.645 M238.672 163.477 C 239.839 164.658,240.882 165.625,240.989 165.625 C 241.096 165.625,240.229 164.658,239.063 163.477 C 237.896 162.295,236.853 161.328,236.745 161.328 C 236.638 161.328,237.505 162.295,238.672 163.477 M80.078 163.432 C 80.078 163.515,80.596 163.659,81.229 163.752 C 81.863 163.845,82.292 163.777,82.183 163.601 C 81.989 163.288,80.078 163.135,80.078 163.432 M355.950 180.469 C 355.950 181.221,356.030 181.528,356.129 181.152 C 356.227 180.776,356.227 180.161,356.129 179.785 C 356.030 179.409,355.950 179.717,355.950 180.469 M300.391 183.398 C 300.928 183.705,301.543 183.957,301.758 183.957 C 301.973 183.957,301.709 183.705,301.172 183.398 C 300.635 183.091,300.020 182.840,299.805 182.840 C 299.590 182.840,299.854 183.091,300.391 183.398 M258.594 185.547 C 259.032 186.406,259.479 187.109,259.586 187.109 C 259.694 187.109,259.423 186.406,258.984 185.547 C 258.546 184.688,258.099 183.984,257.992 183.984 C 257.885 183.984,258.155 184.688,258.594 185.547 M75.497 191.797 C 75.497 192.764,75.573 193.159,75.666 192.676 C 75.759 192.192,75.759 191.401,75.666 190.918 C 75.573 190.435,75.497 190.830,75.497 191.797 M298.919 192.578 C 298.919 193.330,298.999 193.638,299.097 193.262 C 299.196 192.886,299.196 192.271,299.097 191.895 C 298.999 191.519,298.919 191.826,298.919 192.578 M335.645 194.801 C 336.021 194.899,336.636 194.899,337.012 194.801 C 337.388 194.702,337.080 194.622,336.328 194.622 C 335.576 194.622,335.269 194.702,335.645 194.801 M340.723 195.191 C 341.099 195.289,341.714 195.289,342.090 195.191 C 342.466 195.093,342.158 195.013,341.406 195.013 C 340.654 195.013,340.347 195.093,340.723 195.191 M343.457 195.191 C 343.833 195.289,344.448 195.289,344.824 195.191 C 345.200 195.093,344.893 195.013,344.141 195.013 C 343.389 195.013,343.081 195.093,343.457 195.191 M299.325 198.047 C 299.325 199.014,299.401 199.409,299.494 198.926 C 299.588 198.442,299.588 197.651,299.494 197.168 C 299.401 196.685,299.325 197.080,299.325 198.047 M75.099 198.633 C 75.103 199.492,75.183 199.798,75.276 199.312 C 75.370 198.826,75.366 198.123,75.268 197.749 C 75.171 197.376,75.094 197.773,75.099 198.633 M75.489 205.664 C 75.493 206.523,75.573 206.829,75.667 206.343 C 75.760 205.857,75.757 205.154,75.659 204.781 C 75.561 204.407,75.485 204.805,75.489 205.664 M266.933 216.016 C 266.933 217.842,267.001 218.589,267.083 217.676 C 267.165 216.763,267.165 215.269,267.083 214.355 C 267.001 213.442,266.933 214.189,266.933 216.016 M309.675 213.174 C 310.377 213.261,311.432 213.259,312.019 213.170 C 312.606 213.081,312.031 213.009,310.742 213.012 C 309.453 213.014,308.973 213.087,309.675 213.174 M60.449 225.673 C 61.147 225.760,62.290 225.760,62.988 225.673 C 63.687 225.587,63.115 225.516,61.719 225.516 C 60.322 225.516,59.751 225.587,60.449 225.673 M201.860 240.120 C 202.346 240.213,203.049 240.210,203.423 240.112 C 203.796 240.014,203.398 239.938,202.539 239.942 C 201.680 239.947,201.374 240.027,201.860 240.120 M196.484 241.211 C 195.947 241.518,195.684 241.769,195.898 241.769 C 196.113 241.769,196.729 241.518,197.266 241.211 C 197.803 240.904,198.066 240.653,197.852 240.653 C 197.637 240.653,197.021 240.904,196.484 241.211 M45.191 242.285 C 44.486 242.983,44.357 243.183,44.904 242.728 C 45.451 242.273,46.250 241.707,46.680 241.470 C 47.109 241.233,47.239 241.034,46.967 241.028 C 46.695 241.021,45.896 241.587,45.191 242.285 M258.398 248.828 C 258.065 249.473,257.880 250.000,257.988 250.000 C 258.095 250.000,258.456 249.473,258.789 248.828 C 259.122 248.184,259.307 247.656,259.200 247.656 C 259.092 247.656,258.732 248.184,258.398 248.828 M41.903 251.172 C 41.903 252.139,41.979 252.534,42.073 252.051 C 42.166 251.567,42.166 250.776,42.073 250.293 C 41.979 249.810,41.903 250.205,41.903 251.172 M219.888 254.810 C 220.063 254.985,220.977 255.070,221.920 254.998 L 223.633 254.869 221.601 254.680 C 220.483 254.577,219.712 254.635,219.888 254.810 M184.942 256.286 C 184.599 256.951,184.387 257.564,184.471 257.649 C 184.556 257.733,184.918 257.190,185.275 256.440 C 186.079 254.756,185.800 254.627,184.942 256.286 M226.691 267.383 C 226.692 268.887,226.763 269.454,226.848 268.644 C 226.932 267.833,226.931 266.603,226.844 265.909 C 226.758 265.216,226.689 265.879,226.691 267.383 M236.825 266.406 C 236.825 267.373,236.901 267.769,236.994 267.285 C 237.088 266.802,237.088 266.011,236.994 265.527 C 236.901 265.044,236.825 265.439,236.825 266.406 M209.375 267.946 C 209.375 268.578,209.514 269.180,209.684 269.285 C 209.854 269.391,209.923 268.874,209.837 268.137 C 209.645 266.495,209.375 266.383,209.375 267.946 M135.156 274.411 C 135.156 274.676,138.329 276.254,138.506 276.077 C 138.588 275.996,137.868 275.546,136.905 275.079 C 135.943 274.611,135.156 274.311,135.156 274.411 M54.688 275.903 C 54.688 275.971,55.259 276.542,55.957 277.173 L 57.227 278.320 56.079 277.051 C 55.010 275.867,54.688 275.602,54.688 275.903 M237.606 281.250 C 237.606 282.217,237.683 282.612,237.776 282.129 C 237.869 281.646,237.869 280.854,237.776 280.371 C 237.683 279.888,237.606 280.283,237.606 281.250 M159.473 281.519 C 159.849 281.618,160.464 281.618,160.840 281.519 C 161.216 281.421,160.908 281.341,160.156 281.341 C 159.404 281.341,159.097 281.421,159.473 281.519 M165.348 281.931 C 166.807 282.006,169.093 282.005,170.426 281.929 C 171.760 281.853,170.566 281.792,167.773 281.792 C 164.980 281.793,163.889 281.855,165.348 281.931 M100.171 285.254 L 99.023 286.523 100.293 285.376 C 101.476 284.307,101.742 283.984,101.440 283.984 C 101.373 283.984,100.802 284.556,100.171 285.254 M182.156 292.578 C 182.156 293.975,182.227 294.546,182.314 293.848 C 182.400 293.149,182.400 292.007,182.314 291.309 C 182.227 290.610,182.156 291.182,182.156 292.578 M225.571 303.613 L 223.633 305.664 225.684 303.726 C 226.812 302.659,227.734 301.737,227.734 301.675 C 227.734 301.383,227.372 301.708,225.571 303.613 M188.477 305.469 C 189.752 306.758,190.884 307.813,190.991 307.813 C 191.099 307.813,190.143 306.758,188.867 305.469 C 187.592 304.180,186.460 303.125,186.353 303.125 C 186.245 303.125,187.201 304.180,188.477 305.469 M203.613 312.780 C 204.204 312.869,205.171 312.869,205.762 312.780 C 206.353 312.690,205.869 312.617,204.688 312.617 C 203.506 312.617,203.022 312.690,203.613 312.780 " stroke="none" fill="#73787a" fill-rule="evenodd"></path></g></svg>